<svg width="512" height="512" viewBox="0 0 512 512" fill="none" xmlns="http://www.w3.org/2000/svg">
<rect width="512" height="512" rx="30" fill="#2C2C2C"/>
<path d="M295.326 320H370.028H445.442V253.44V186.88M295.326 320V53.7598M295.326 320H220.624H145.922V253.44V186.88M295.326 53.7598H370.028H445.442V120.32V186.88M295.326 53.7598H220.624H145.922V120.32V186.88M445.442 186.88H145.922" stroke="#E3E3E3" stroke-width="20"/>
<path d="M296.094 320L209.498 469.76M296.094 320H370.765H445.436L423.786 357.44L402.136 394.88M296.094 320H221.423H146.752L125.103 357.44L103.454 394.88M209.498 469.76H284.169H358.835L380.485 432.32L402.136 394.88M209.498 469.76H134.827H60.1562L81.8053 432.32L103.454 394.88M402.136 394.88H103.454" stroke="#E3E3E3" stroke-width="20"/>
<path d="M61 332.586L146 193.414M61 332.586V268.379V204.171L82.25 169.379L103.5 134.586M61 332.586V396.121V461L82.25 425.871L103.5 390.742M146 193.414V129.207V65L124.75 99.7929L103.5 134.586M146 193.414V256.949V320.484L124.75 355.613L103.5 390.742M103.5 390.742V134.586" stroke="#E3E3E3" stroke-width="20"/>
<path d="M152.789 323.636C154.856 320.046 153.621 315.461 150.031 313.394C146.442 311.327 141.856 312.562 139.789 316.151L146.289 319.894L152.789 323.636ZM38.4008 507.278L113.349 463.887L38.2973 420.676L38.4008 507.278ZM146.289 319.894L139.789 316.151L65.5813 445.039L72.0809 448.781L78.5806 452.524L152.789 323.636L146.289 319.894Z" fill="#13F679"/>
<path d="M145.922 312.5C141.78 312.5 138.422 315.858 138.422 320C138.422 324.142 141.78 327.5 145.922 327.5V320V312.5ZM494.082 320L419.082 276.699V363.301L494.082 320ZM145.922 320V327.5H426.582V320V312.5H145.922V320Z" fill="#F65713"/>
<path d="M138.422 320C138.422 324.142 141.78 327.5 145.922 327.5C150.064 327.5 153.422 324.142 153.422 320L145.922 320L138.422 320ZM145.922 3.83998L102.621 78.84L189.223 78.84L145.922 3.83998ZM145.922 320L153.422 320L153.422 71.34L145.922 71.34L138.422 71.34L138.422 320L145.922 320Z" fill="#139FF6"/>
<path d="M146.289 319.894L69.1191 448" stroke="#13F679" stroke-width="35" stroke-linecap="round"/>
<path d="M146.289 319.894L445.821 321.249" stroke="#F65713" stroke-width="35" stroke-linecap="round"/>
<path d="M145.922 320L145.922 51.2" stroke="#139FF6" stroke-width="35" stroke-linecap="round"/>
</svg>
